<?xml version="1.0" encoding="UTF-8"?>
<svg width="132px" height="31px" viewBox="0 0 132 31" version="1.1" xmlns="http://www.w3.org/2000/svg" xmlns:xlink="http://www.w3.org/1999/xlink">
    <!-- Generator: sketchtool 51.3 (57544) - http://www.bohemiancoding.com/sketch -->
    <title>0A650595-8FFC-45F2-A5CE-DA93C92A1FB8</title>
    <desc>Created with sketchtool.</desc>
    <defs></defs>
    <g id="Page-1" stroke="none" stroke-width="1" fill="none" fill-rule="evenodd">
        <g id="girisyap" transform="translate(-765.000000, -45.000000)" fill="#FFFFFF">
            <g id="apsis-logo" transform="translate(765.000000, 45.000000)">
                <path d="M21.3531983,11.2446256 C20.0116813,9.91523566 17.1494056,7.06253942 17.1494056,7.06253942 L18.4865552,5.73019031 L23.3241574,10.5504254 C24.3309503,11.4327978 23.8442376,13.2448901 22.3992985,13.1286098 L20.4842433,13.1286098 L20.4831951,21.0934603 C20.4831951,21.0934603 20.4748095,21.2929472 20.411743,21.519067 C20.217652,22.2075228 19.5981678,22.8181684 18.8644301,22.8827491 L5.03609575,22.8841417 C5.03609575,22.8841417 4.80706479,22.8752641 4.56667835,22.7986722 C3.76620551,22.5434824 3.44598143,21.8261305 3.49419848,21.0482015 L3.49419848,13.1286098 L1.53214904,13.1286098 C1.53214904,13.1286098 1.31674463,13.1350504 1.05242438,13.0534105 C-0.0646038536,12.7080512 -0.347092851,11.3118175 0.469976438,10.5297108 L10.1100663,0.923532841 C10.5270739,0.363890503 11.2019378,0.0152237509 11.9106935,0.0152237509 C12.6075695,0.0152237509 13.2562286,0.374508907 13.6615313,0.923532841 L16.639982,3.86291711 L15.3092964,5.20188098 L12.8385222,2.76365075 C12.8385222,2.76365075 12.1011159,1.99390319 12.0672241,1.96535535 C12.0100974,1.91800769 11.9625792,1.89955603 11.9106935,1.89955603 C11.8196751,1.89955603 11.7548616,1.9317594 11.698259,1.97667004 C11.5364873,2.16292737 4.552353,9.12599207 2.41944751,11.2512404 L5.38549463,11.2409701 L5.38304884,21.0036391 L18.5590554,21.0018984 L18.5973146,11.2446256 L21.3531983,11.2446256 Z M41.4469308,23.1732078 L38.788906,15.9706278 L28.7078611,15.9706278 L26.0498364,23.1732078 L24.2832224,23.1732078 L33.0514625,0.0151367227 L34.5749644,0.0151367227 L43.2459597,23.1732078 L41.4469308,23.1732078 Z M34.3156449,3.79406881 C34.1967896,3.47108155 34.0995458,3.15348217 34.0239106,2.84126115 C33.9482753,2.57210509 33.8672388,2.30295308 33.7807985,2.03379702 L33.7159686,2.03379702 C33.5322831,2.744369 33.3540027,3.32035432 33.1811222,3.76177025 L29.2751225,14.5010431 L38.2378522,14.5010431 L34.3156449,3.79406881 Z M48.4161419,20.2340383 L48.351312,20.2340383 L48.351312,30.7795198 L46.860225,30.7795198 L46.860225,6.63634253 L48.351312,6.63634253 L48.351312,10.0438411 L48.4161419,10.0438411 C49.0104187,8.82725576 49.8613022,7.88791522 50.968818,7.22579133 C52.0763339,6.56366745 53.294583,6.23261047 54.6236021,6.23261047 C56.7305834,6.23261047 58.3756249,6.95662938 59.5587759,8.40468896 C60.741927,9.85274857 61.3334937,11.8202497 61.3334937,14.3072516 C61.3334937,17.074176 60.655488,19.3108292 59.2994565,21.0172785 C57.9434249,22.723728 56.1525176,23.5769399 53.9266809,23.5769399 C51.4415235,23.5769399 49.6046955,22.4626505 48.4161419,20.2340383 Z M48.351312,14.0811617 L48.351312,16.1644192 C48.351312,17.8224205 48.8753482,19.2462346 49.9234364,20.4359044 C50.9715245,21.6255742 52.3491456,22.2204001 54.0563407,22.2204001 C55.7527308,22.2204001 57.1303518,21.4963812 58.189245,20.0483216 C59.2481381,18.600262 59.7775767,16.6973572 59.7775767,14.3395503 C59.7775767,12.2724318 59.2913576,10.6306045 58.3189047,9.4140191 C57.3464517,8.19743375 56.0498673,7.5891502 54.4291125,7.5891502 C52.4950116,7.5891502 50.9985371,8.23511503 49.9396438,9.52706409 C48.8807506,10.8190132 48.351312,12.3370306 48.351312,14.0811617 Z M64.5911946,22.44649 L64.5911946,20.6539197 C65.1530564,21.1384006 65.8337633,21.5205964 66.6333357,21.8005187 C67.432908,22.080441 68.1244197,22.2204001 68.7078915,22.2204001 C71.3119043,22.2204001 72.6138913,21.1599411 72.6138913,19.0389914 C72.6138913,18.3068869 72.3275622,17.6824543 71.7548954,17.1656747 C71.1822287,16.648895 70.2530098,16.115974 68.9672109,15.5668957 C67.3788712,14.8778563 66.2632684,14.1646034 65.6203689,13.4271158 C64.9774695,12.6896282 64.6560246,11.793352 64.6560246,10.7382603 C64.6560246,9.39248001 65.1719572,8.30510586 66.2038378,7.47610522 C67.2357184,6.64710456 68.5079918,6.23261047 70.0206964,6.23261047 C71.4469607,6.23261047 72.667911,6.52329464 73.6835841,7.10467172 L73.6835841,8.78419709 C72.4518104,7.98749517 71.1768357,7.5891502 69.8586217,7.5891502 C68.7673135,7.5891502 67.8867165,7.87175981 67.2168045,8.43698752 C66.5468924,9.00221523 66.2119415,9.73700026 66.2119415,10.6413646 C66.2119415,11.4273002 66.4226364,12.0651905 66.8440327,12.5550546 C67.2654289,13.0449185 68.1946478,13.6074463 69.6317172,14.2426546 C71.3605224,15.017824 72.5490581,15.7364598 73.1973601,16.3985838 C73.845662,17.0607077 74.1698081,17.9408348 74.1698081,19.0389914 C74.1698081,20.352473 73.6754853,21.4371556 72.6868248,22.2930718 C71.6981644,23.1489881 70.3340494,23.5769399 68.5944393,23.5769399 C66.9952944,23.5769399 65.6608929,23.200127 64.5911946,22.44649 Z M79.0644634,2.46982765 C78.7403125,2.46982765 78.4539834,2.35140077 78.2054676,2.11454344 C77.9569519,1.87768611 77.8326959,1.57623585 77.8326959,1.21018362 C77.8326959,0.854897631 77.9596531,0.566904974 78.2135714,0.34619701 C78.4674896,0.125489046 78.7511174,0.0151367227 79.0644634,0.0151367227 C79.3994194,0.0151367227 79.6938522,0.122797522 79.9477704,0.338122369 C80.2016886,0.553447215 80.3286459,0.844131382 80.3286459,1.21018362 C80.3286459,1.55470337 80.2043898,1.85077059 79.9558741,2.09839416 C79.7073583,2.34601772 79.4102244,2.46982765 79.0644634,2.46982765 Z M78.3351273,23.1732078 L78.3351273,6.63634253 L79.8262144,6.63634253 L79.8262144,23.1732078 L78.3351273,23.1732078 Z M89.1941308,26.5484077 C88.5890489,28.0341493 87.9191469,29.1376725 87.1844048,29.8590107 C86.4496625,30.580349 85.5042363,30.9410127 84.3480978,30.9410127 C83.8618714,30.9410127 83.4296766,30.86565 83.0515005,30.7149226 L83.0515005,29.2291886 C83.4404816,29.379916 83.8942862,29.4552787 84.4129278,29.4552787 C85.7419467,29.4552787 86.7900192,28.5401618 87.5571766,26.7099006 L89.0968859,23.0440135 L82.8083885,6.63634253 L84.4777576,6.63634253 L89.4858651,20.1048441 C89.5939155,20.3955326 89.6695495,20.6162373 89.7127697,20.7669647 C89.7559898,20.9715233 89.8046118,21.1545467 89.8586369,21.3160402 L89.9234668,21.3160402 L90.312446,20.2017398 L95.6609104,6.63634253 L97.2816571,6.63634253 L89.1941308,26.5484077 Z M106.844063,23.5769399 C104.423736,23.5769399 102.508572,22.7829414 101.098516,21.1949207 C99.6884591,19.6069 98.9834413,17.5425039 98.9834413,15.0016708 C98.9834413,12.2562791 99.7208737,10.108446 101.195761,8.55810713 C102.670648,7.00776826 104.612823,6.23261047 107.022345,6.23261047 C109.388647,6.23261047 111.25789,7.00238523 112.630129,8.54195785 C114.002368,10.0815305 114.688478,12.2132144 114.688478,14.9370737 C114.688478,17.5102056 113.988862,19.5934422 112.58961,21.186846 C111.190359,22.7802498 109.275195,23.5769399 106.844063,23.5769399 Z M106.957515,7.5891502 C105.001805,7.5891502 103.443202,8.24588111 102.281661,9.55936264 C101.12012,10.8728442 100.539358,12.6976948 100.539358,15.0339694 C100.539358,17.1979841 101.106614,18.9367061 102.241142,20.2501876 C103.375671,21.5636691 104.92617,22.2204001 106.892686,22.2204001 C108.891617,22.2204001 110.431311,21.5744353 111.511814,20.2824862 C112.592317,18.9905371 113.132561,17.1979847 113.132561,14.9047752 C113.132561,12.5469682 112.595018,10.7382665 111.519918,9.47861623 C110.444817,8.2189659 108.924031,7.5891502 106.957515,7.5891502 Z M130.085572,23.1732078 L130.085572,13.5482354 C130.085572,9.57549203 128.648524,7.5891502 125.774386,7.5891502 C124.17524,7.5891502 122.862449,8.17321007 121.835971,9.34134734 C120.809493,10.5094846 120.296261,11.9548309 120.296261,13.6774297 L120.296261,23.1732078 L118.805174,23.1732078 L118.805174,6.63634253 L120.296261,6.63634253 L120.296261,9.64010905 L120.361091,9.64010905 C121.571255,7.36843197 123.462107,6.23261047 126.033705,6.23261047 C127.827341,6.23261047 129.199558,6.82743642 130.150402,8.01710618 C131.101245,9.20677593 131.576659,10.9051251 131.576659,13.1122048 L131.576659,23.1732078 L130.085572,23.1732078 Z" id="Shape"></path>
            </g>
        </g>
    </g>
</svg>