<svg xmlns="http://www.w3.org/2000/svg" xmlns:xlink="http://www.w3.org/1999/xlink" width="132" height="31" version="1.1"><rect id="backgroundrect" width="100%" height="100%" x="0" y="0" fill="none" stroke="none"/>
    <!-- Generator: sketchtool 51.3 (57544) - http://www.bohemiancoding.com/sketch -->
    <title>0A650595-8FFC-45F2-A5CE-DA93C92A1FB8</title>
    <desc>Created with sketchtool.</desc>
    <defs/>
    
<g class="currentLayer" style=""><title>Layer 1</title><g id="Page-1" stroke="none" stroke-width="1" fill="#4ba2e5" fill-rule="evenodd" class="selected" fill-opacity="1">
        <g id="girisyap" fill="#4ba2e5" fill-opacity="1">
            <g id="apsis-logo" fill="#4ba2e5" fill-opacity="1">
                <path d="M21.138144547935326,11.029571847935294 C19.79662754793526,9.700181907935296 16.934351847935318,6.847485667935295 16.934351847935318,6.847485667935295 L18.271501447935293,5.515136557935293 L23.109103647935285,10.335371647935297 C24.115896547935336,11.217744047935298 23.629183847935337,13.029836347935294 22.18424474793528,12.913556047935295 L20.269189547935298,12.913556047935295 L20.268141347935284,20.878406547935295 C20.268141347935284,20.878406547935295 20.259755747935287,21.077893447935296 20.196689247935296,21.304013247935295 C20.00259824793534,21.992469047935295 19.38311404793535,22.603114647935296 18.649376347935345,22.667695347935297 L4.821041997935254,22.669087947935296 C4.821041997935254,22.669087947935296 4.592011037935322,22.660210347935294 4.351624597935256,22.583618447935294 C3.5511517579352585,22.328428647935294 3.230927677935256,21.611076747935297 3.279144727935318,20.833147747935296 L3.279144727935318,12.913556047935295 L1.3170952879353308,12.913556047935295 C1.3170952879353308,12.913556047935295 1.1016908779353116,12.919996647935296 0.8373706279353428,12.838356747935293 C-0.2796576056647382,12.492997447935295 -0.5621466030646618,11.096763747935299 0.25492268593529843,10.314657047935299 L9.895012547935266,0.7084790889352915 C10.3120201479353,0.14883675093529553 10.986884047935291,-0.19983000116470606 11.695639747935274,-0.19983000116470606 C12.39251574793525,-0.19983000116470606 13.041174847935281,0.15945515493529439 13.446477547935274,0.7084790889352915 L16.424928247935327,3.647863357935293 L15.094242647935289,4.986827227935294 L12.623468447935238,2.5485969979352916 C12.623468447935238,2.5485969979352916 11.886062147935263,1.7788494379352926 11.852170347935271,1.750301597935298 C11.795043647935245,1.7029539379352983 11.747525447935345,1.6845022779352945 11.695639747935274,1.6845022779352945 C11.604621347935336,1.6845022779352945 11.539807847935322,1.7167056479352922 11.483205247935302,1.761616287935297 C11.321433547935271,1.9478736179352936 4.337299247935334,8.910938317935297 2.2043937579353496,11.036186647935295 L5.170440877935334,11.025916347935294 L5.16799508793531,20.788585347935296 L18.34400164793533,20.786844647935297 L18.3822608479353,11.029571847935294 L21.138144547935326,11.029571847935294 zM41.23187704793531,22.958154047935295 L38.57385224793529,15.755574047935298 L28.49280734793524,15.755574047935298 L25.8347826479353,22.958154047935295 L24.068168647935295,22.958154047935295 L32.83640874793525,-0.19991702936470546 L34.359910647935294,-0.19991702936470546 L43.03090594793525,22.958154047935295 L41.23187704793531,22.958154047935295 zM34.10059114793535,3.579015057935294 C33.98173584793528,3.256027797935296 33.88449204793528,2.938428417935299 33.80885684793532,2.6262073979352962 C33.73322154793527,2.357051337935296 33.65218504793529,2.087899327935297 33.56574474793524,1.8187432679352966 L33.50091484793529,1.8187432679352966 C33.31722934793527,2.529315247935294 33.13894894793532,3.105300567935295 32.9660684479353,3.546716497935293 L29.060068747935247,14.285989347935296 L38.022798447935315,14.285989347935296 L34.10059114793535,3.579015057935294 zM48.20108814793525,20.018984547935297 L48.1362582479353,20.018984547935297 L48.1362582479353,30.564466047935294 L46.64517124793531,30.564466047935294 L46.64517124793531,6.421288777935295 L48.1362582479353,6.421288777935295 L48.1362582479353,9.828787347935297 L48.20108814793525,9.828787347935297 C48.79536494793524,8.612202007935295 49.64624844793525,7.672861467935292 50.75376424793535,7.010737577935295 C51.861280147935304,6.348613697935292 53.079529247935284,6.0175567179352925 54.408548347935266,6.0175567179352925 C56.515529647935296,6.0175567179352925 58.16057114793534,6.741575627935298 59.343722147935296,8.189635207935297 C60.52687324793533,9.637694817935298 61.11843994793526,11.605195947935293 61.11843994793526,14.092197847935296 C61.11843994793526,16.859122247935296 60.440434247935286,19.095775447935296 59.084402747935314,20.802224747935295 C57.72837114793526,22.508674247935296 55.937463847935305,23.361886147935294 53.711627147935246,23.361886147935294 C51.22646974793531,23.361886147935294 49.38964174793534,22.247596747935294 48.20108814793525,20.018984547935297 zM48.1362582479353,13.866107947935298 L48.1362582479353,15.949365447935296 C48.1362582479353,17.607366747935295 48.66029444793526,19.031180847935296 49.70838264793531,20.220850647935293 C50.75647074793528,21.410520447935294 52.13409184793534,22.005346347935294 53.84128694793526,22.005346347935294 C55.53767704793529,22.005346347935294 56.915298047935266,21.281327447935297 57.97419124793532,19.833267847935296 C59.0330843479353,18.385208247935296 59.56252294793535,16.482303447935294 59.56252294793535,14.124496547935294 C59.56252294793535,12.057378047935295 59.076303847935264,10.4155507479353 58.10385094793526,9.1989653479353 C57.131397947935284,7.982379997935297 55.834813547935255,7.374096447935294 54.21405874793527,7.374096447935294 C52.27995784793529,7.374096447935294 50.78348334793532,8.020061277935298 49.724590047935294,9.312010337935291 C48.66569684793535,10.603959447935296 48.1362582479353,12.121976847935294 48.1362582479353,13.866107947935298 zM64.37614084793529,22.231436247935296 L64.37614084793529,20.438865947935295 C64.93800264793526,20.923346847935296 65.61870954793528,21.305542647935294 66.41828194793527,21.585464947935296 C67.21785424793529,21.865387247935296 67.90936594793527,22.005346347935294 68.49283774793525,22.005346347935294 C71.09685054793533,22.005346347935294 72.39883754793527,20.944887347935296 72.39883754793527,18.823937647935296 C72.39883754793527,18.091833147935294 72.11250844793528,17.467400547935295 71.5398416479353,16.950620947935295 C70.96717494793529,16.433841247935295 70.03795604793527,15.900920247935296 68.75215714793535,15.351841947935295 C67.16381744793534,14.662802547935293 66.04821464793531,13.949549647935296 65.40531514793531,13.212062047935294 C64.76241574793528,12.474574447935296 64.44097084793532,11.578298247935294 64.44097084793532,10.523206547935295 C64.44097084793532,9.177426257935295 64.95690344793525,8.090052107935293 65.98878404793527,7.261051467935296 C67.02066464793529,6.432050807935298 68.29293804793531,6.0175567179352925 69.80564264793531,6.0175567179352925 C71.23190694793527,6.0175567179352925 72.4528572479353,6.308240887935298 73.46853034793526,6.889617967935294 L73.46853034793526,8.569143337935294 C72.2367566479353,7.772441417935298 70.96178194793526,7.374096447935294 69.64356794793525,7.374096447935294 C68.5522597479353,7.374096447935294 67.67166274793533,7.6567060579352955 67.00175074793526,8.221933767935298 C66.33183864793534,8.787161477935292 65.99688774793526,9.521946507935297 65.99688774793526,10.426310847935298 C65.99688774793526,11.212246447935293 66.20758264793528,11.850136747935295 66.62897894793525,12.340000847935293 C67.05037514793526,12.829864747935297 67.97959404793528,13.392392547935295 69.41666344793532,14.027600847935297 C71.14546864793533,14.802770247935293 72.33400434793532,15.521406047935294 72.98230634793526,16.183530047935296 C73.63060824793524,16.845653947935297 73.95475434793525,17.725781047935296 73.95475434793525,18.823937647935296 C73.95475434793525,20.137419247935295 73.46043154793529,21.222101847935296 72.47177104793525,22.078018047935295 C71.48311064793529,22.933934347935296 70.11899564793532,23.361886147935294 68.37938554793527,23.361886147935294 C66.78024064793533,23.361886147935294 65.44583914793532,22.985073247935293 64.37614084793529,22.231436247935296 zM78.84940964793532,2.2547738979352943 C78.52525874793525,2.2547738979352943 78.23892964793527,2.136347017935293 77.99041384793532,1.8994896879352936 C77.74189814793533,1.6626323579352942 77.61764214793527,1.3611820979352984 77.61764214793527,0.9951298679352973 C77.61764214793527,0.6398438789352953 77.74459934793526,0.3518512219352986 77.99851764793527,0.13114325793529252 C78.25243584793532,-0.08956470606470646 78.5360636479353,-0.19991702936470546 78.84940964793532,-0.19991702936470546 C79.18436564793524,-0.19991702936470546 79.47879844793533,-0.09225623006470582 79.73271664793526,0.12306861693529231 C79.9866348479353,0.3383934629352937 80.11359214793526,0.6290776299352957 80.11359214793526,0.9951298679352973 C80.11359214793526,1.3396496179352937 79.98933604793524,1.6357168379352984 79.74082034793526,1.8833404079352931 C79.4923045479353,2.130963967935294 79.19517064793536,2.2547738979352943 78.84940964793532,2.2547738979352943 zM78.12007354793525,22.958154047935295 L78.12007354793525,6.421288777935295 L79.61116064793532,6.421288777935295 L79.61116064793532,22.958154047935295 L78.12007354793525,22.958154047935295 zM88.97907704793533,26.333353947935294 C88.37399514793526,27.819095547935294 87.70409314793528,28.922618747935296 86.96935104793533,29.643956947935294 C86.23460874793534,30.365295247935297 85.2891825479353,30.725958947935297 84.1330440479353,30.725958947935297 C83.64681764793534,30.725958947935297 83.21462284793529,30.650596247935294 82.83644674793527,30.499868847935296 L82.83644674793527,29.014134847935296 C83.2254278479353,29.164862247935297 83.6792324479353,29.240224947935296 84.19787404793533,29.240224947935296 C85.52689294793527,29.240224947935296 86.57496544793526,28.325108047935295 87.34212284793534,26.494846847935296 L88.88183214793526,22.828959747935293 L82.59333474793527,6.421288777935295 L84.26270384793531,6.421288777935295 L89.27081134793525,19.889790347935296 C89.37886174793528,20.180478847935294 89.45449574793531,20.401183547935297 89.49771594793526,20.551910947935294 C89.54093604793525,20.756469547935296 89.58955804793527,20.939492947935296 89.64358314793526,21.100986447935295 L89.70841304793532,21.100986447935295 L90.09739224793532,19.986686047935294 L95.44585664793533,6.421288777935295 L97.06660334793526,6.421288777935295 L88.97907704793533,26.333353947935294 zM106.6290092479353,23.361886147935294 C104.20868224793526,23.361886147935294 102.29351824793525,22.567887647935294 100.88346224793531,20.979866947935296 C99.47340534793534,19.391846247935295 98.76838754793528,17.327450147935295 98.76838754793528,14.786617047935295 C98.76838754793528,12.041225347935296 99.50581994793527,9.893392247935296 100.98070724793524,8.343053377935291 C102.45559424793532,6.792714507935294 104.39776924793534,6.0175567179352925 106.80729124793527,6.0175567179352925 C109.17359324793529,6.0175567179352925 111.04283624793527,6.787331477935297 112.4150752479353,8.326904097935298 C113.78731424793534,9.866476747935295 114.47342424793533,11.998160647935293 114.47342424793533,14.722019947935294 C114.47342424793533,17.295151847935294 113.77380824793534,19.378388447935293 112.37455624793529,20.971792247935294 C110.97530524793524,22.565196047935295 109.06014124793523,23.361886147935294 106.6290092479353,23.361886147935294 zM106.74246124793535,7.374096447935294 C104.78675124793529,7.374096447935294 103.22814824793534,8.030827357935294 102.06660724793528,9.344308887935298 C100.90506624793534,10.657790447935298 100.32430424793529,12.482641047935296 100.32430424793529,14.818915647935295 C100.32430424793529,16.982930347935294 100.89156024793533,18.721652347935294 102.02608824793526,20.035133847935295 C103.1606172479353,21.348615347935294 104.71111624793525,22.005346347935294 106.67763224793532,22.005346347935294 C108.67656324793529,22.005346347935294 110.21625724793535,21.359381547935296 111.29676024793525,20.067432447935296 C112.37726324793528,18.775483347935296 112.9175072479353,16.982930947935294 112.9175072479353,14.689721447935295 C112.9175072479353,12.331914447935297 112.37996424793528,10.523212747935297 111.30486424793526,9.263562477935295 C110.22976324793535,8.003912147935296 108.70897724793531,7.374096447935294 106.74246124793535,7.374096447935294 zM129.87051824793525,22.958154047935295 L129.87051824793525,13.333181647935294 C129.87051824793525,9.360438277935295 128.43347024793525,7.374096447935294 125.55933224793534,7.374096447935294 C123.96018624793533,7.374096447935294 122.64739524793526,7.958156317935291 121.62091724793527,9.126293587935294 C120.59443924793527,10.294430847935296 120.08120724793525,11.739777147935293 120.08120724793525,13.462375947935293 L120.08120724793525,22.958154047935295 L118.59012024793526,22.958154047935295 L118.59012024793526,6.421288777935295 L120.08120724793525,6.421288777935295 L120.08120724793525,9.425055297935295 L120.14603724793528,9.425055297935295 C121.35620124793525,7.153378217935298 123.24705324793536,6.0175567179352925 125.81865124793535,6.0175567179352925 C127.61228724793534,6.0175567179352925 128.98450424793532,6.612382667935293 129.93534824793528,7.802052427935294 C130.88619124793536,8.991722177935294 131.36160524793536,10.690071347935294 131.36160524793536,12.897151047935296 L131.36160524793536,22.958154047935295 L129.87051824793525,22.958154047935295 z" id="Shape" fill="#4ba2e5" fill-opacity="1"/>
            </g>
        </g>
    </g></g></svg>