<svg xmlns="http://www.w3.org/2000/svg" width="46" height="46" viewBox="0 0 46 46">
    <g fill="none" fill-rule="evenodd">
        <circle cx="19.5" cy="19.5" r="19.5" fill="#28ACE8" fill-opacity=".2"/>
        <g stroke="#161637" stroke-linecap="round" stroke-linejoin="round" stroke-width="1.4">
            <path d="M0.703 12.6L21.003 0.7 41.303 12.6 41.303 41.3 0.703 41.3z" transform="translate(4 4)"/>
            <path d="M23.103 9.8c0 1.16-.941 2.1-2.1 2.1-1.16 0-2.1-.94-2.1-2.1 0-1.16.94-2.1 2.1-2.1 1.159 0 2.1.94 2.1 2.1h0zM3.503 21.7L10.503 21.7 10.503 16.1 3.503 16.1zM31.503 21.7L38.503 21.7 38.503 16.1 31.503 16.1zM3.503 32.9L10.503 32.9 10.503 27.3 3.503 27.3zM31.503 32.9L38.503 32.9 38.503 27.3 31.503 27.3zM25.903 41.3h-9.8v-7.7c0-2.706 2.193-4.9 4.9-4.9h0c2.706 0 4.9 2.194 4.9 4.9v7.7h0zM16.103 24.5L25.903 24.5 25.903 16.1 16.103 16.1z" transform="translate(4 4)"/>
        </g>
    </g>
</svg>
