<svg xmlns="http://www.w3.org/2000/svg" width="46" height="46" viewBox="0 0 46 46">
    <g fill="none" fill-rule="evenodd">
        <g>
            <g>
                <g transform="translate(-555 -192) translate(450 160) translate(105 32)">
                    <circle cx="19.5" cy="19.5" r="19.5" fill="#28ACE8" fill-opacity=".2"/>
                    <g stroke="#161637" stroke-linecap="round" stroke-linejoin="round" stroke-width="1.4">
                        <path d="M34.303 3.5L21.003 0.7 7.703 3.5 7.703 41.3 34.303 41.3z" transform="translate(4 4)"/>
                        <path d="M11.903 11.9L16.103 11.9 16.103 7.7 11.903 7.7zM18.903 11.9L23.103 11.9 23.103 7.7 18.903 7.7zM25.903 11.9L30.103 11.9 30.103 7.7 25.903 7.7zM11.903 18.9L16.103 18.9 16.103 14.7 11.903 14.7zM18.903 18.9L23.103 18.9 23.103 14.7 18.903 14.7zM25.903 18.9L30.103 18.9 30.103 14.7 25.903 14.7zM11.903 25.9L16.103 25.9 16.103 21.7 11.903 21.7zM18.903 25.9L23.103 25.9 23.103 21.7 18.903 21.7zM25.903 25.9L30.103 25.9 30.103 21.7 25.903 21.7zM11.903 32.9L16.103 32.9 16.103 28.7 11.903 28.7zM18.903 32.9L23.103 32.9 23.103 28.7 18.903 28.7zM25.903 32.9L30.103 32.9 30.103 28.7 25.903 28.7zM14.703 41.3L27.303 41.3 27.303 35.7 14.703 35.7zM.703 41.3L7.703 41.3 7.703 7.7.703 7.7zM41.303 41.3L34.303 41.3 34.303 7.7 41.303 7.76zM3.503 10.5L7.703 10.5M3.503 16.1L7.703 16.1M3.503 21.7L7.703 21.7M3.503 27.3L7.703 27.3M3.503 32.9L7.703 32.9M3.503 38.5L7.703 38.5M34.303 10.5L38.503 10.5M34.303 16.1L38.503 16.1M34.303 21.7L38.503 21.7M34.303 27.3L38.503 27.3M34.303 32.9L38.503 32.9M34.303 38.5L38.503 38.5" transform="translate(4 4)"/>
                    </g>
                </g>
            </g>
        </g>
    </g>
</svg>
