<svg xmlns="http://www.w3.org/2000/svg" width="47" height="47" viewBox="0 0 47 47">
    <g fill="none" fill-rule="evenodd">
        <g>
            <g>
                <g transform="translate(-840 -192) translate(735 160) translate(105 32)">
                    <circle cx="19.5" cy="19.5" r="19.5" fill="#28ACE8" fill-opacity=".2"/>
                    <g stroke="#161637" stroke-linecap="round" stroke-linejoin="round" stroke-width="1.4">
                        <path d="M42 21c0 11.598-9.402 21-21 21S0 32.598 0 21 9.402 0 21 0s21 9.402 21 21z" transform="translate(4 4)"/>
                        <path d="M9.75 33c0-6.627 5.037-12 11.25-12s11.25 5.373 11.25 12M26.25 11.25c0 2.9-2.35 5.25-5.25 5.25s-5.25-2.35-5.25-5.25S18.1 6 21 6s5.25 2.35 5.25 5.25z" transform="translate(4 4)"/>
                    </g>
                </g>
            </g>
        </g>
    </g>
</svg>
